<?xml version="1.0" encoding="UTF-8" standalone="no"?>
<svg
   version="1.1"
   width="75.359901"
   height="2.0230999"
   id="svg4"
   viewBox="0 0 75.359901 2.0230999"
   sodipodi:docname="Sem título-1.cdr"
   xmlns:inkscape="http://www.inkscape.org/namespaces/inkscape"
   xmlns:sodipodi="http://sodipodi.sourceforge.net/DTD/sodipodi-0.dtd"
   xmlns="http://www.w3.org/2000/svg"
   xmlns:svg="http://www.w3.org/2000/svg">
  <defs
     id="defs8" />
  <sodipodi:namedview
     id="namedview6"
     pagecolor="#ffffff"
     bordercolor="#666666"
     borderopacity="1.0"
     inkscape:pageshadow="2"
     inkscape:pageopacity="0.0"
     inkscape:pagecheckerboard="0" />
  <path
     d="M 2.7689,1.7477 C 1.8997,1.7477 1.193,1.0524 1.1747,0.1878 H -1e-4 V 2.2119 H 75.36 V 0.1878 h -1.1754 c -0.0182,0.8646 -0.725,1.5599 -1.5943,1.5599 -0.8693,0 -1.576,-0.6953 -1.5943,-1.5599 h -1.1752 c -0.0183,0.8646 -0.725,1.5599 -1.5943,1.5599 -0.8693,0 -1.5761,-0.6953 -1.5943,-1.5599 H 65.457 c -0.0183,0.8646 -0.725,1.5599 -1.5943,1.5599 -0.8694,0 -1.5761,-0.6953 -1.5944,-1.5599 h -1.1752 c -0.0182,0.8646 -0.725,1.5599 -1.5943,1.5599 -0.8693,0 -1.576,-0.6953 -1.5943,-1.5599 h -1.1752 c -0.0183,0.8646 -0.725,1.5599 -1.5943,1.5599 -0.8693,0 -1.5761,-0.6953 -1.5943,-1.5599 h -1.1752 c -0.0183,0.8646 -0.725,1.5599 -1.5943,1.5599 -0.8694,0 -1.5761,-0.6953 -1.5944,-1.5599 h -1.1881 c -0.1012,0.783 -0.7706,1.3878 -1.5814,1.3878 -0.8108,0 -1.4802,-0.6048 -1.5814,-1.3878 h -1.1881 c -0.0183,0.8646 -0.725,1.5599 -1.5943,1.5599 -0.8693,0 -1.576,-0.6953 -1.5943,-1.5599 H 39.274 c -0.0183,0.8646 -0.725,1.5599 -1.5943,1.5599 -0.8694,0 -1.5761,-0.6953 -1.5944,-1.5599 h -1.1752 c -0.0182,0.8646 -0.725,1.5599 -1.5942,1.5599 -0.8694,0 -1.5761,-0.6953 -1.5944,-1.5599 h -1.1752 c -0.0183,0.8646 -0.725,1.5599 -1.5943,1.5599 -0.8693,0 -1.576,-0.6953 -1.5943,-1.5599 h -1.1752 c -0.0183,0.8646 -0.725,1.5599 -1.5943,1.5599 -0.8694,0 -1.5761,-0.6953 -1.5944,-1.5599 h -1.1752 c -0.0182,0.8646 -0.725,1.5599 -1.5942,1.5599 -0.8694,0 -1.5761,-0.6953 -1.5944,-1.5599 h -1.1752 c -0.0183,0.8646 -0.725,1.5599 -1.5943,1.5599 -0.8693,0 -1.576,-0.6953 -1.5943,-1.5599 h -1.1621 c -0.0182,0.8646 -0.725,1.5599 -1.5943,1.5599 -0.8693,0 -1.576,-0.6953 -1.5943,-1.5599 H 8.7271 C 8.7089,1.0524 8.0021,1.7477 7.1329,1.7477 6.2635,1.7477 5.5568,1.0524 5.5385,0.1878 H 4.3633 C 4.345,1.0524 3.6383,1.7477 2.7689,1.7477 Z"
     style="fill:#f5f5f5;fill-rule:evenodd"
     id="path2" />
</svg>
